<?xml version="1.0" encoding="UTF-8" standalone="no"?>
<svg
   xmlns:dc="http://purl.org/dc/elements/1.1/"
   xmlns:cc="http://creativecommons.org/ns#"
   xmlns:rdf="http://www.w3.org/1999/02/22-rdf-syntax-ns#"
   xmlns:svg="http://www.w3.org/2000/svg"
   xmlns="http://www.w3.org/2000/svg"
   xmlns:sodipodi="http://sodipodi.sourceforge.net/DTD/sodipodi-0.dtd"
   xmlns:inkscape="http://www.inkscape.org/namespaces/inkscape"
   width="125mm"
   height="125mm"
   viewBox="0 0 125 125"
   version="1.1"
   id="svg1242"
   inkscape:version="1.0.2 (e86c870879, 2021-01-15)"
   sodipodi:docname="cd.svg">
  <title
     id="title2206">CD Icon</title>
  <defs
     id="defs1236">
    <inkscape:path-effect
       effect="powerclip"
       id="path-effect2192"
       is_visible="true"
       lpeversion="1"
       inverse="true"
       flatten="false"
       hide_clip="false"
       message="Füllregel Gerade-Ungerade im &lt;b&gt;Füllung und Kontur&lt;/b&gt;-Dialog verwenden, wenn das Anwenden des Ausschnitts mit nachfolgendem Umwandeln in Pfade kein Ergebnis bringt" />
    <inkscape:path-effect
       effect="powerclip"
       id="path-effect2180"
       is_visible="true"
       lpeversion="1"
       inverse="true"
       flatten="false"
       hide_clip="false"
       message="Füllregel Gerade-Ungerade im &lt;b&gt;Füllung und Kontur&lt;/b&gt;-Dialog verwenden, wenn das Anwenden des Ausschnitts mit nachfolgendem Umwandeln in Pfade kein Ergebnis bringt" />
    <inkscape:path-effect
       effect="powerclip"
       id="path-effect2142"
       is_visible="true"
       lpeversion="1"
       inverse="true"
       flatten="false"
       hide_clip="false"
       message="Füllregel Gerade-Ungerade im &lt;b&gt;Füllung und Kontur&lt;/b&gt;-Dialog verwenden, wenn das Anwenden des Ausschnitts mit nachfolgendem Umwandeln in Pfade kein Ergebnis bringt" />
    <inkscape:path-effect
       effect="powerclip"
       id="path-effect2080"
       is_visible="true"
       lpeversion="1"
       inverse="true"
       flatten="false"
       hide_clip="false"
       message="Füllregel Gerade-Ungerade im &lt;b&gt;Füllung und Kontur&lt;/b&gt;-Dialog verwenden, wenn das Anwenden des Ausschnitts mit nachfolgendem Umwandeln in Pfade kein Ergebnis bringt" />
    <inkscape:path-effect
       effect="powerclip"
       id="path-effect1992"
       is_visible="true"
       lpeversion="1"
       inverse="true"
       flatten="false"
       hide_clip="false"
       message="Füllregel Gerade-Ungerade im &lt;b&gt;Füllung und Kontur&lt;/b&gt;-Dialog verwenden, wenn das Anwenden des Ausschnitts mit nachfolgendem Umwandeln in Pfade kein Ergebnis bringt" />
    <clipPath
       clipPathUnits="userSpaceOnUse"
       id="clipPath1988">
      <circle
         style="display:none;fill:#ffffff;fill-opacity:1;stroke-width:0.0712708"
         id="circle1990"
         cx="62.5"
         cy="62.5"
         r="11"
         d="m 73.5,62.5 a 11,11 0 0 1 -11,11 11,11 0 0 1 -11,-11 11,11 0 0 1 11,-11 11,11 0 0 1 11,11 z" />
      <path
         id="lpe_path-effect1992"
         style="display:block;fill:#ffffff;fill-opacity:1;stroke-width:0.0712708"
         class="powerclip"
         d="M 41,41 H 84 V 84 H 41 Z m 32.5,21.5 a 11,11 0 0 0 -11,-11 11,11 0 0 0 -11,11 11,11 0 0 0 11,11 11,11 0 0 0 11,-11 z"
         inkscape:original-d="M 41,41 H 84 V 84 H 41 Z m 32.5,21.5 a 11,11 0 0 0 -11,-11 11,11 0 0 0 -11,11 11,11 0 0 0 11,11 11,11 0 0 0 11,-11 z" />
    </clipPath>
    <clipPath
       clipPathUnits="userSpaceOnUse"
       id="clipPath2076">
      <path
         id="lpe_path-effect2080"
         style="fill:#ffffff;fill-opacity:1;stroke-width:0.0712708"
         class="powerclip"
         d="m 57.5,57.5 h 64.27792 v 64.27792 H 57.5 Z m 16,5 a 11,11 0 0 0 -11,-11 11,11 0 0 0 -11,11 11,11 0 0 0 11,11 11,11 0 0 0 11,-11 z" />
    </clipPath>
    <clipPath
       clipPathUnits="userSpaceOnUse"
       id="clipPath2076-5">
      <circle
         style="display:none;fill:#ffffff;fill-opacity:1;stroke-width:0.0712708"
         id="circle2078-9"
         cx="62.5"
         cy="62.5"
         r="11"
         d="m 73.5,62.5 a 11,11 0 0 1 -11,11 11,11 0 0 1 -11,-11 11,11 0 0 1 11,-11 11,11 0 0 1 11,11 z" />
      <path
         id="lpe_path-effect2080-2"
         style="fill:#ffffff;fill-opacity:1;stroke-width:0.0712708"
         class="powerclip"
         d="m 57.5,57.5 h 64.27792 v 64.27792 H 57.5 Z m 16,5 a 11,11 0 0 0 -11,-11 11,11 0 0 0 -11,11 11,11 0 0 0 11,11 11,11 0 0 0 11,-11 z" />
    </clipPath>
    <clipPath
       clipPathUnits="userSpaceOnUse"
       id="clipath_lpe_path-effect2142">
      <path
         id="lpe_path-effect2142"
         style="fill:#ffffff;fill-opacity:1;stroke-width:0.0712708"
         class="powerclip"
         d="m 57.5,57.5 h 64.27792 v 64.27792 H 57.5 Z m 16,5 a 11,11 0 0 0 -11,-11 11,11 0 0 0 -11,11 11,11 0 0 0 11,11 11,11 0 0 0 11,-11 z" />
    </clipPath>
    <clipPath
       clipPathUnits="userSpaceOnUse"
       id="clipPath1988-8">
      <circle
         style="display:none;fill:#ffffff;fill-opacity:1;stroke-width:0.0712708"
         id="circle1990-9"
         cx="62.5"
         cy="62.5"
         r="11"
         d="m 73.5,62.5 a 11,11 0 0 1 -11,11 11,11 0 0 1 -11,-11 11,11 0 0 1 11,-11 11,11 0 0 1 11,11 z" />
      <path
         id="lpe_path-effect1992-7"
         style="fill:#ffffff;fill-opacity:1;stroke-width:0.0712708"
         class="powerclip"
         d="M 41,41 H 84 V 84 H 41 Z m 32.5,21.5 a 11,11 0 0 0 -11,-11 11,11 0 0 0 -11,11 11,11 0 0 0 11,11 11,11 0 0 0 11,-11 z" />
    </clipPath>
    <clipPath
       clipPathUnits="userSpaceOnUse"
       id="clipath_lpe_path-effect2180">
      <circle
         style="display:none;fill:#ffffff;fill-opacity:1;stroke-width:0.0712708"
         id="circle2182"
         cx="62.5"
         cy="62.5"
         r="11"
         d="m 73.5,62.5 a 11,11 0 0 1 -11,11 11,11 0 0 1 -11,-11 11,11 0 0 1 11,-11 11,11 0 0 1 11,11 z" />
      <path
         id="lpe_path-effect2180"
         style="fill:#ffffff;fill-opacity:1;stroke-width:0.0712708"
         class="powerclip"
         d="M 41,41 H 84 V 84 H 41 Z m 32.5,21.5 a 11,11 0 0 0 -11,-11 11,11 0 0 0 -11,11 11,11 0 0 0 11,11 11,11 0 0 0 11,-11 z" />
    </clipPath>
    <clipPath
       clipPathUnits="userSpaceOnUse"
       id="clipPath2188">
      <circle
         style="display:none;fill:#bebebe;fill-opacity:0.602295;stroke-width:0.106906"
         id="circle2190"
         clip-path="url(#clipPath1988)"
         inkscape:path-effect="#path-effect1992"
         sodipodi:type="arc"
         sodipodi:cx="62.5"
         sodipodi:cy="62.5"
         sodipodi:rx="16.5"
         sodipodi:ry="16.5"
         d="M 79,62.5 A 16.5,16.5 0 0 1 62.5,79 16.5,16.5 0 0 1 46,62.5 16.5,16.5 0 0 1 62.5,46 16.5,16.5 0 0 1 79,62.5 Z" />
      <path
         id="lpe_path-effect2192"
         style="fill:#bebebe;fill-opacity:0.602295;stroke-width:0.106906"
         class="powerclip"
         d="m 35.5,35.5 h 54 v 54 h -54 z M 79,62.5 A 16.5,16.5 0 0 0 62.5,46 16.5,16.5 0 0 0 46,62.5 16.5,16.5 0 0 0 62.5,79 16.5,16.5 0 0 0 79,62.5 Z" />
    </clipPath>
  </defs>
  <sodipodi:namedview
     id="base"
     pagecolor="#ffffff"
     bordercolor="#666666"
     borderopacity="1.0"
     inkscape:pageopacity="0.0"
     inkscape:pageshadow="2"
     inkscape:zoom="1.4"
     inkscape:cx="224.34813"
     inkscape:cy="290.21672"
     inkscape:document-units="mm"
     inkscape:current-layer="layer1"
     inkscape:document-rotation="0"
     showgrid="false"
     inkscape:window-width="1848"
     inkscape:window-height="1016"
     inkscape:window-x="0"
     inkscape:window-y="0"
     inkscape:window-maximized="1" />
  <metadata
     id="metadata1239">
    <rdf:RDF>
      <cc:Work
         rdf:about="">
        <dc:format>image/svg+xml</dc:format>
        <dc:type
           rdf:resource="http://purl.org/dc/dcmitype/StillImage" />
        <dc:title>CD Icon</dc:title>
        <cc:license
           rdf:resource="http://creativecommons.org/licenses/by-sa/4.0/" />
        <dc:creator>
          <cc:Agent>
            <dc:title>Philipp Wolfer</dc:title>
          </cc:Agent>
        </dc:creator>
        <dc:description />
        <dc:rights>
          <cc:Agent>
            <dc:title>Dieses Werk ist lizenziert unter einer Creative Commons Namensnennung - Weitergabe unter gleichen Bedingungen 4.0 International Lizenz.</dc:title>
          </cc:Agent>
        </dc:rights>
      </cc:Work>
      <cc:License
         rdf:about="http://creativecommons.org/licenses/by-sa/4.0/">
        <cc:permits
           rdf:resource="http://creativecommons.org/ns#Reproduction" />
        <cc:permits
           rdf:resource="http://creativecommons.org/ns#Distribution" />
        <cc:requires
           rdf:resource="http://creativecommons.org/ns#Notice" />
        <cc:requires
           rdf:resource="http://creativecommons.org/ns#Attribution" />
        <cc:permits
           rdf:resource="http://creativecommons.org/ns#DerivativeWorks" />
        <cc:requires
           rdf:resource="http://creativecommons.org/ns#ShareAlike" />
      </cc:License>
    </rdf:RDF>
  </metadata>
  <g
     inkscape:label="Ebene 1"
     inkscape:groupmode="layer"
     id="layer1">
    <g
       id="g891">
      <g
         id="g878">
        <circle
           style="fill:#babad2;fill-opacity:1;stroke-width:0.406568"
           id="path1223"
           cx="62.5"
           cy="62.5"
           r="62.75" />
        <circle
           style="fill:#e7e7e7;fill-opacity:1;stroke-width:0.380651"
           id="path1223-6"
           cx="62.5"
           cy="62.5"
           r="58.75" />
      </g>
      <g
         id="g879">
        <path
           id="path1223-6-7"
           clip-path="url(#clipPath2076)"
           d="M 116.77792,84.982652 A 58.75,58.75 0 0 1 84.982654,116.77792 L 62.5,62.5 Z"
           style="fill:#cdd9ed;fill-opacity:0.764706;stroke-width:0.380651" />
        <path
           id="path1223-6-7-2"
           transform="rotate(180,62.5,62.5)"
           clip-path="url(#clipath_lpe_path-effect2142)"
           d="M 116.77792,84.982652 A 58.75,58.75 0 0 1 84.982654,116.77792 L 62.5,62.5 Z"
           style="fill:#cdd9ed;fill-opacity:0.766511;stroke-width:0.380651" />
      </g>
      <g
         id="g885">
        <circle
           style="fill:#ffffff;fill-opacity:1;stroke-width:0.0712707"
           id="path1223-2-1-2-2-3-7"
           cx="62.5"
           cy="62.5"
           r="11" />
        <circle
           style="fill:#bebebe;fill-opacity:0.602295;stroke-width:0.106906"
           id="path1223-2-3"
           clip-path="url(#clipath_lpe_path-effect2180)"
           inkscape:path-effect="#path-effect2180"
           sodipodi:type="arc"
           sodipodi:cx="62.5"
           sodipodi:cy="62.5"
           sodipodi:rx="16.5"
           sodipodi:ry="16.5" />
        <circle
           style="fill:#ffffff;fill-opacity:1;stroke-width:0.0712707"
           id="path1223-2-1-2-2"
           cx="62.5"
           cy="62.5"
           r="11" />
        <path
           style="fill:#ffffff;fill-opacity:1;stroke-width:0.142542"
           id="path1223-2-1-8"
           clip-path="url(#clipPath2188)"
           inkscape:path-effect="#path-effect2192"
           sodipodi:type="arc"
           sodipodi:cx="62.5"
           sodipodi:cy="62.5"
           sodipodi:rx="22"
           sodipodi:ry="22" />
      </g>
    </g>
  </g>
</svg>
