<?xml version="1.0" encoding="UTF-8" standalone="no"?>
<svg
   version="1.1"
   id="Layer_1"
   x="0px"
   y="0px"
   width="108"
   height="108"
   viewBox="0 0 108 108"
   enable-background="new 0 0 375 150"
   xml:space="preserve"
   sodipodi:docname="ic_launcher_background.svg"
   inkscape:version="1.1.1 (3bf5ae0d25, 2021-09-20)"
   xmlns:inkscape="http://www.inkscape.org/namespaces/inkscape"
   xmlns:sodipodi="http://sodipodi.sourceforge.net/DTD/sodipodi-0.dtd"
   xmlns="http://www.w3.org/2000/svg"
   xmlns:svg="http://www.w3.org/2000/svg"
   xmlns:rdf="http://www.w3.org/1999/02/22-rdf-syntax-ns#"
   xmlns:cc="http://creativecommons.org/ns#"
   xmlns:dc="http://purl.org/dc/elements/1.1/"><sodipodi:namedview
     id="namedview629"
     pagecolor="#ffffff"
     bordercolor="#666666"
     borderopacity="1.0"
     inkscape:pageshadow="2"
     inkscape:pageopacity="0.0"
     inkscape:pagecheckerboard="0"
     showgrid="false"
     inkscape:zoom="5.6568543"
     inkscape:cx="78.400464"
     inkscape:cy="78.223687"
     inkscape:window-width="1852"
     inkscape:window-height="1016"
     inkscape:window-x="68"
     inkscape:window-y="27"
     inkscape:window-maximized="1"
     inkscape:current-layer="Layer_1" /><title
     id="title1221">Picard Barcode Scanner Icon</title><defs
     id="defs8143"><clipPath
       clipPathUnits="userSpaceOnUse"
       id="clipPath914"><path
         style="display:none;fill:#ffffff;fill-opacity:1;stroke-width:0.0712708"
         id="circle916"
         d="M-11,0a11,11 0 1,0 22,0a11,11 0 1,0 -22,0" /><path
         id="lpe_path-effect918"
         style="fill:#ffffff;fill-opacity:1;stroke-width:0.0712708"
         class="powerclip"
         d="m -5.25,-5.25 h 135.5 v 135.5 H -5.25 Z M 73.5,62.5 a 11,11 0 0 0 -11,-11 11,11 0 0 0 -11,11 11,11 0 0 0 11,11 11,11 0 0 0 11,-11 z" /></clipPath><clipPath
       clipPathUnits="userSpaceOnUse"
       id="clipPath906"><path
         style="display:none;fill:#ffffff;fill-opacity:1;stroke-width:0.0712708"
         id="circle908"
         d="M-11,0a11,11 0 1,0 22,0a11,11 0 1,0 -22,0" /><path
         id="lpe_path-effect910"
         style="fill:#ffffff;fill-opacity:1;stroke-width:0.0712708"
         class="powerclip"
         d="m -1.25,-1.25 h 127.5 v 127.5 H -1.25 Z M 73.5,62.5 a 11,11 0 0 0 -11,-11 11,11 0 0 0 -11,11 11,11 0 0 0 11,11 11,11 0 0 0 11,-11 z" /></clipPath><clipPath
       clipPathUnits="userSpaceOnUse"
       id="clipPath2076-3"><path
         id="lpe_path-effect2080-6"
         style="fill:#ffffff;fill-opacity:1;stroke-width:0.0712708"
         class="powerclip"
         d="m 57.5,57.5 h 64.27792 v 64.27792 H 57.5 Z m 16,5 a 11,11 0 0 0 -11,-11 11,11 0 0 0 -11,11 11,11 0 0 0 11,11 11,11 0 0 0 11,-11 z" /></clipPath><clipPath
       clipPathUnits="userSpaceOnUse"
       id="clipath_lpe_path-effect2142-7"><path
         id="lpe_path-effect2142-5"
         style="fill:#ffffff;fill-opacity:1;stroke-width:0.0712708"
         class="powerclip"
         d="m 57.5,57.5 h 64.27792 v 64.27792 H 57.5 Z m 16,5 a 11,11 0 0 0 -11,-11 11,11 0 0 0 -11,11 11,11 0 0 0 11,11 11,11 0 0 0 11,-11 z" /></clipPath><clipPath
       clipPathUnits="userSpaceOnUse"
       id="clipath_lpe_path-effect2180-3"><path
         id="lpe_path-effect2180-5"
         style="fill:#ffffff;fill-opacity:1;stroke-width:0.0712708"
         class="powerclip"
         d="M 41,41 H 84 V 84 H 41 Z m 32.5,21.5 a 11,11 0 0 0 -11,-11 11,11 0 0 0 -11,11 11,11 0 0 0 11,11 11,11 0 0 0 11,-11 z" /></clipPath><clipPath
       clipPathUnits="userSpaceOnUse"
       id="clipPath2188-6"><path
         id="lpe_path-effect2192-2"
         style="fill:#bebebe;fill-opacity:0.602295;stroke-width:0.106906"
         class="powerclip"
         d="m 35.5,35.5 h 54 v 54 h -54 z M 79,62.5 A 16.5,16.5 0 0 0 62.5,46 16.5,16.5 0 0 0 46,62.5 16.5,16.5 0 0 0 62.5,79 16.5,16.5 0 0 0 79,62.5 Z" /></clipPath></defs><rect
     style="fill:#707070;stroke-width:1.244;fill-opacity:1"
     id="rect45"
     width="108"
     height="108"
     x="0"
     y="0" /><path
     id="path2588"
     style="fill:#666666;fill-opacity:1;stroke:none;stroke-width:0;stroke-miterlimit:4;stroke-dasharray:none;stroke-opacity:1"
     d="M 108,107.93104 18,108 88.057661,0.0582324 108,0 Z"
     sodipodi:nodetypes="ccccc" /><metadata
     id="metadata215"><rdf:RDF><cc:Work
         rdf:about=""><dc:title>Picard Barcode Scanner Icon</dc:title></cc:Work></rdf:RDF></metadata></svg>
