<?xml version="1.0" encoding="UTF-8" standalone="no"?>
<svg
   version="1.1"
   id="Layer_1"
   x="0px"
   y="0px"
   width="108"
   height="108"
   viewBox="0 0 108 108"
   enable-background="new 0 0 375 150"
   xml:space="preserve"
   sodipodi:docname="icon-adaptive-foreground.svg"
   inkscape:version="1.1.1 (3bf5ae0d25, 2021-09-20)"
   xmlns:inkscape="http://www.inkscape.org/namespaces/inkscape"
   xmlns:sodipodi="http://sodipodi.sourceforge.net/DTD/sodipodi-0.dtd"
   xmlns="http://www.w3.org/2000/svg"
   xmlns:svg="http://www.w3.org/2000/svg"
   xmlns:rdf="http://www.w3.org/1999/02/22-rdf-syntax-ns#"
   xmlns:cc="http://creativecommons.org/ns#"
   xmlns:dc="http://purl.org/dc/elements/1.1/"><sodipodi:namedview
     id="namedview629"
     pagecolor="#ffffff"
     bordercolor="#666666"
     borderopacity="1.0"
     inkscape:pageshadow="2"
     inkscape:pageopacity="0.0"
     inkscape:pagecheckerboard="0"
     showgrid="false"
     inkscape:zoom="3.9074074"
     inkscape:cx="58.990521"
     inkscape:cy="44.914692"
     inkscape:window-width="1852"
     inkscape:window-height="1016"
     inkscape:window-x="68"
     inkscape:window-y="27"
     inkscape:window-maximized="1"
     inkscape:current-layer="Layer_1" /><title
     id="title1221">Picard Barcode Scanner Icon</title><defs
     id="defs8143"><clipPath
       clipPathUnits="userSpaceOnUse"
       id="clipPath914"><path
         style="display:none;fill:#ffffff;fill-opacity:1;stroke-width:0.0712708"
         id="circle916"
         d="M-11,0a11,11 0 1,0 22,0a11,11 0 1,0 -22,0" /><path
         id="lpe_path-effect918"
         style="fill:#ffffff;fill-opacity:1;stroke-width:0.0712708"
         class="powerclip"
         d="m -5.25,-5.25 h 135.5 v 135.5 H -5.25 Z M 73.5,62.5 a 11,11 0 0 0 -11,-11 11,11 0 0 0 -11,11 11,11 0 0 0 11,11 11,11 0 0 0 11,-11 z" /></clipPath><clipPath
       clipPathUnits="userSpaceOnUse"
       id="clipPath906"><path
         style="display:none;fill:#ffffff;fill-opacity:1;stroke-width:0.0712708"
         id="circle908"
         d="M-11,0a11,11 0 1,0 22,0a11,11 0 1,0 -22,0" /><path
         id="lpe_path-effect910"
         style="fill:#ffffff;fill-opacity:1;stroke-width:0.0712708"
         class="powerclip"
         d="m -1.25,-1.25 h 127.5 v 127.5 H -1.25 Z M 73.5,62.5 a 11,11 0 0 0 -11,-11 11,11 0 0 0 -11,11 11,11 0 0 0 11,11 11,11 0 0 0 11,-11 z" /></clipPath><clipPath
       clipPathUnits="userSpaceOnUse"
       id="clipPath2076-3"><path
         id="lpe_path-effect2080-6"
         style="fill:#ffffff;fill-opacity:1;stroke-width:0.0712708"
         class="powerclip"
         d="m 57.5,57.5 h 64.27792 v 64.27792 H 57.5 Z m 16,5 a 11,11 0 0 0 -11,-11 11,11 0 0 0 -11,11 11,11 0 0 0 11,11 11,11 0 0 0 11,-11 z" /></clipPath><clipPath
       clipPathUnits="userSpaceOnUse"
       id="clipath_lpe_path-effect2142-7"><path
         id="lpe_path-effect2142-5"
         style="fill:#ffffff;fill-opacity:1;stroke-width:0.0712708"
         class="powerclip"
         d="m 57.5,57.5 h 64.27792 v 64.27792 H 57.5 Z m 16,5 a 11,11 0 0 0 -11,-11 11,11 0 0 0 -11,11 11,11 0 0 0 11,11 11,11 0 0 0 11,-11 z" /></clipPath><clipPath
       clipPathUnits="userSpaceOnUse"
       id="clipath_lpe_path-effect2180-3"><path
         id="lpe_path-effect2180-5"
         style="fill:#ffffff;fill-opacity:1;stroke-width:0.0712708"
         class="powerclip"
         d="M 41,41 H 84 V 84 H 41 Z m 32.5,21.5 a 11,11 0 0 0 -11,-11 11,11 0 0 0 -11,11 11,11 0 0 0 11,11 11,11 0 0 0 11,-11 z" /></clipPath><clipPath
       clipPathUnits="userSpaceOnUse"
       id="clipPath2188-6"><path
         id="lpe_path-effect2192-2"
         style="fill:#bebebe;fill-opacity:0.602295;stroke-width:0.106906"
         class="powerclip"
         d="m 35.5,35.5 h 54 v 54 h -54 z M 79,62.5 A 16.5,16.5 0 0 0 62.5,46 16.5,16.5 0 0 0 46,62.5 16.5,16.5 0 0 0 62.5,79 16.5,16.5 0 0 0 79,62.5 Z" /></clipPath></defs><metadata
     id="metadata215"><rdf:RDF><cc:Work
         rdf:about=""><dc:title>Picard Barcode Scanner Icon</dc:title><cc:license
           rdf:resource="http://creativecommons.org/licenses/by-sa/4.0/" /><dc:rights><cc:Agent><dc:title>Dieses Werk ist lizenziert unter einer Creative Commons Namensnennung - Weitergabe unter gleichen Bedingungen 4.0 International Lizenz.</dc:title></cc:Agent></dc:rights><dc:creator><cc:Agent><dc:title>Philipp Wolfer</dc:title></cc:Agent></dc:creator></cc:Work><cc:License
         rdf:about="http://creativecommons.org/licenses/by-sa/4.0/"><cc:permits
           rdf:resource="http://creativecommons.org/ns#Reproduction" /><cc:permits
           rdf:resource="http://creativecommons.org/ns#Distribution" /><cc:requires
           rdf:resource="http://creativecommons.org/ns#Notice" /><cc:requires
           rdf:resource="http://creativecommons.org/ns#Attribution" /><cc:permits
           rdf:resource="http://creativecommons.org/ns#DerivativeWorks" /><cc:requires
           rdf:resource="http://creativecommons.org/ns#ShareAlike" /></cc:License></rdf:RDF></metadata><g
     id="g93"
     transform="matrix(0.8,0,0,0.8,10.8,10.8)"><g
       id="g743"><path
         style="fill:#babad2;fill-opacity:1;stroke-width:0.406568"
         id="path1223"
         clip-path="url(#clipPath914)"
         d="M 125.25,62.5 A 62.75,62.75 0 0 1 62.5,125.25 62.75,62.75 0 0 1 -0.25,62.5 62.75,62.75 0 0 1 62.5,-0.25 62.75,62.75 0 0 1 125.25,62.5 Z"
         transform="matrix(0.47808765,0,0,0.47808764,24.119522,24.119522)" /><path
         style="fill:#771b85;fill-opacity:1;stroke-width:0.380651"
         id="path1223-6-9"
         clip-path="url(#clipPath906)"
         d="M 121.25,62.5 A 58.75,58.75 0 0 1 62.5,121.25 58.75,58.75 0 0 1 3.75,62.5 58.75,58.75 0 0 1 62.5,3.75 58.75,58.75 0 0 1 121.25,62.5 Z"
         transform="matrix(0.47808765,0,0,0.47808764,24.119522,24.119522)" /><g
         id="g734"><path
           id="path1223-6-7-1"
           clip-path="url(#clipPath2076-3)"
           d="M 116.77792,84.982652 A 58.75,58.75 0 0 1 84.982654,116.77792 L 62.5,62.5 Z"
           style="fill:#b66bc2;fill-opacity:1;stroke-width:0.380651"
           transform="matrix(0.47808765,0,0,0.47808764,24.119522,24.119522)" /><path
           id="path1223-6-7-2-2"
           transform="matrix(-0.47808765,0,0,-0.47808764,83.880478,83.880477)"
           clip-path="url(#clipath_lpe_path-effect2142-7)"
           d="M 116.77792,84.982652 A 58.75,58.75 0 0 1 84.982654,116.77792 L 62.5,62.5 Z"
           style="fill:#b66bc2;fill-opacity:1;stroke-width:0.380651" /></g><path
         id="path1223-2-3-7"
         clip-path="url(#clipath_lpe_path-effect2180-3)"
         d="M 79,62.5 A 16.5,16.5 0 0 1 62.5,79 16.5,16.5 0 0 1 46,62.5 16.5,16.5 0 0 1 62.5,46 16.5,16.5 0 0 1 79,62.5 Z"
         style="fill:#bebebe;fill-opacity:0.602295;stroke-width:0.106906"
         transform="matrix(0.47808765,0,0,0.47808764,24.119522,24.119522)" /><path
         id="path1223-2-1-8-0"
         clip-path="url(#clipPath2188-6)"
         d="m 84.5,62.5 a 22,22 0 0 1 -22,22 22,22 0 0 1 -22,-22 22,22 0 0 1 22,-22 22,22 0 0 1 22,22 z"
         style="fill:#ffffff;fill-opacity:1;stroke-width:0.142542"
         transform="matrix(0.47808765,0,0,0.47808764,24.119522,24.119522)" /></g><g
       id="g730"><path
         id="rect872"
         style="fill:#f2f2f2;fill-opacity:0.7;stroke-width:0.495669"
         d="M 38.5,53.0625 H 79.944649 V 84 H 38.5 Z" /><path
         style="display:inline;fill:#eb743b;fill-opacity:1;stroke:none;stroke-width:0.569444;enable-background:new"
         id="path7098"
         d="m 41.284793,55.718752 v 25.624999 h 3.986119 v -25.625 z m 6.833347,0 v 25.624999 h 3.416672 v -25.625 z m 4.555561,0 v 25.624999 h 2.277786 v -25.625 z m 4.555568,0 v 25.624999 h 2.277782 v -25.625 z m 5.125008,0 v 25.624999 h 3.986119 v -25.625 z m 6.833345,0 v 25.624999 h 1.708338 v -25.625 z m 4.555565,0 v 25.624999 h 3.416671 v -25.625 z" /></g></g></svg>
