<?xml version="1.0" encoding="UTF-8" standalone="no"?>
<svg
   xmlns:dc="http://purl.org/dc/elements/1.1/"
   xmlns:cc="http://creativecommons.org/ns#"
   xmlns:rdf="http://www.w3.org/1999/02/22-rdf-syntax-ns#"
   xmlns:svg="http://www.w3.org/2000/svg"
   xmlns="http://www.w3.org/2000/svg"
   xmlns:sodipodi="http://sodipodi.sourceforge.net/DTD/sodipodi-0.dtd"
   xmlns:inkscape="http://www.inkscape.org/namespaces/inkscape"
   version="1.1"
   id="Layer_1"
   x="0px"
   y="0px"
   width="512"
   height="512"
   viewBox="0 0 512 512"
   enable-background="new 0 0 375 150"
   xml:space="preserve"
   inkscape:version="1.0.2 (e86c870879, 2021-01-15)"
   sodipodi:docname="icon-color.svg"
   inkscape:export-filename="/home/phw/devel/mobile/android/PicardBarcodeScanner/design/icon-color-144.png"
   inkscape:export-xdpi="27"
   inkscape:export-ydpi="27"><title
     id="title1221">Picard Barcode Scanner Icon</title><metadata
     id="metadata8145"><rdf:RDF><cc:Work
         rdf:about=""><dc:format>image/svg+xml</dc:format><dc:type
           rdf:resource="http://purl.org/dc/dcmitype/StillImage" /><dc:title>Picard Barcode Scanner Icon</dc:title><cc:license
           rdf:resource="http://creativecommons.org/licenses/by-sa/4.0/" /><dc:creator><cc:Agent><dc:title>Philipp Wolfer</dc:title></cc:Agent></dc:creator><dc:rights><cc:Agent><dc:title>Dieses Werk ist lizenziert unter einer Creative Commons Namensnennung - Weitergabe unter gleichen Bedingungen 4.0 International Lizenz.</dc:title></cc:Agent></dc:rights></cc:Work><cc:License
         rdf:about="http://creativecommons.org/licenses/by-sa/4.0/"><cc:permits
           rdf:resource="http://creativecommons.org/ns#Reproduction" /><cc:permits
           rdf:resource="http://creativecommons.org/ns#Distribution" /><cc:requires
           rdf:resource="http://creativecommons.org/ns#Notice" /><cc:requires
           rdf:resource="http://creativecommons.org/ns#Attribution" /><cc:permits
           rdf:resource="http://creativecommons.org/ns#DerivativeWorks" /><cc:requires
           rdf:resource="http://creativecommons.org/ns#ShareAlike" /></cc:License></rdf:RDF></metadata><defs
     id="defs8143"><clipPath
       clipPathUnits="userSpaceOnUse"
       id="clipath_lpe_path-effect2180"><circle
         style="display:none;fill:#ffffff;fill-opacity:1;stroke-width:0.0712708"
         id="circle2182"
         cx="62.5"
         cy="62.5"
         r="11"
         d="m 73.5,62.5 a 11,11 0 0 1 -11,11 11,11 0 0 1 -11,-11 11,11 0 0 1 11,-11 11,11 0 0 1 11,11 z" /><path
         id="lpe_path-effect2180"
         style="fill:#ffffff;fill-opacity:1;stroke-width:0.0712708"
         class="powerclip"
         d="M 41,41 H 84 V 84 H 41 Z m 32.5,21.5 a 11,11 0 0 0 -11,-11 11,11 0 0 0 -11,11 11,11 0 0 0 11,11 11,11 0 0 0 11,-11 z" /></clipPath><inkscape:path-effect
       effect="powerclip"
       id="path-effect2180"
       is_visible="true"
       lpeversion="1"
       inverse="true"
       flatten="false"
       hide_clip="false"
       message="Füllregel Gerade-Ungerade im &lt;b&gt;Füllung und Kontur&lt;/b&gt;-Dialog verwenden, wenn das Anwenden des Ausschnitts mit nachfolgendem Umwandeln in Pfade kein Ergebnis bringt" /><clipPath
       clipPathUnits="userSpaceOnUse"
       id="clipPath2076"><path
         id="lpe_path-effect2080"
         style="fill:#ffffff;fill-opacity:1;stroke-width:0.0712708"
         class="powerclip"
         d="m 57.5,57.5 h 64.27792 v 64.27792 H 57.5 Z m 16,5 a 11,11 0 0 0 -11,-11 11,11 0 0 0 -11,11 11,11 0 0 0 11,11 11,11 0 0 0 11,-11 z" /></clipPath><inkscape:path-effect
       effect="powerclip"
       id="path-effect2080"
       is_visible="true"
       lpeversion="1"
       inverse="true"
       flatten="false"
       hide_clip="false"
       message="Füllregel Gerade-Ungerade im &lt;b&gt;Füllung und Kontur&lt;/b&gt;-Dialog verwenden, wenn das Anwenden des Ausschnitts mit nachfolgendem Umwandeln in Pfade kein Ergebnis bringt" /><clipPath
       clipPathUnits="userSpaceOnUse"
       id="clipath_lpe_path-effect2142"><path
         id="lpe_path-effect2142"
         style="fill:#ffffff;fill-opacity:1;stroke-width:0.0712708"
         class="powerclip"
         d="m 57.5,57.5 h 64.27792 v 64.27792 H 57.5 Z m 16,5 a 11,11 0 0 0 -11,-11 11,11 0 0 0 -11,11 11,11 0 0 0 11,11 11,11 0 0 0 11,-11 z" /></clipPath><inkscape:path-effect
       effect="powerclip"
       id="path-effect2142"
       is_visible="true"
       lpeversion="1"
       inverse="true"
       flatten="false"
       hide_clip="false"
       message="Füllregel Gerade-Ungerade im &lt;b&gt;Füllung und Kontur&lt;/b&gt;-Dialog verwenden, wenn das Anwenden des Ausschnitts mit nachfolgendem Umwandeln in Pfade kein Ergebnis bringt" /><clipPath
       clipPathUnits="userSpaceOnUse"
       id="clipPath2188"><circle
         style="display:none;fill:#bebebe;fill-opacity:0.602295;stroke-width:0.106906"
         id="circle2190"
         clip-path="url(#clipPath1988)"
         cx="62.5"
         cy="62.5"
         r="16.5"
         d="M 79,62.5 A 16.5,16.5 0 0 1 62.5,79 16.5,16.5 0 0 1 46,62.5 16.5,16.5 0 0 1 62.5,46 16.5,16.5 0 0 1 79,62.5 Z" /><path
         id="lpe_path-effect2192"
         style="fill:#bebebe;fill-opacity:0.602295;stroke-width:0.106906"
         class="powerclip"
         d="m 35.5,35.5 h 54 v 54 h -54 z M 79,62.5 A 16.5,16.5 0 0 0 62.5,46 16.5,16.5 0 0 0 46,62.5 16.5,16.5 0 0 0 62.5,79 16.5,16.5 0 0 0 79,62.5 Z" /></clipPath><inkscape:path-effect
       effect="powerclip"
       id="path-effect2192"
       is_visible="true"
       lpeversion="1"
       inverse="true"
       flatten="false"
       hide_clip="false"
       message="Füllregel Gerade-Ungerade im &lt;b&gt;Füllung und Kontur&lt;/b&gt;-Dialog verwenden, wenn das Anwenden des Ausschnitts mit nachfolgendem Umwandeln in Pfade kein Ergebnis bringt" /><clipPath
       clipPathUnits="userSpaceOnUse"
       id="clipPath914"><circle
         style="display:none;fill:#ffffff;fill-opacity:1;stroke-width:0.0712708"
         id="circle916"
         cx="62.5"
         cy="62.5"
         r="11"
         d="m 73.5,62.5 a 11,11 0 0 1 -11,11 11,11 0 0 1 -11,-11 11,11 0 0 1 11,-11 11,11 0 0 1 11,11 z" /><path
         id="lpe_path-effect918"
         style="fill:#ffffff;fill-opacity:1;stroke-width:0.0712708"
         class="powerclip"
         d="m -5.25,-5.25 h 135.5 v 135.5 H -5.25 Z M 73.5,62.5 a 11,11 0 0 0 -11,-11 11,11 0 0 0 -11,11 11,11 0 0 0 11,11 11,11 0 0 0 11,-11 z" /></clipPath><inkscape:path-effect
       effect="powerclip"
       id="path-effect918"
       is_visible="true"
       lpeversion="1"
       inverse="true"
       flatten="false"
       hide_clip="false"
       message="Füllregel Gerade-Ungerade im &lt;b&gt;Füllung und Kontur&lt;/b&gt;-Dialog verwenden, wenn das Anwenden des Ausschnitts mit nachfolgendem Umwandeln in Pfade kein Ergebnis bringt" /><clipPath
       clipPathUnits="userSpaceOnUse"
       id="clipPath906"><circle
         style="display:none;fill:#ffffff;fill-opacity:1;stroke-width:0.0712708"
         id="circle908"
         cx="62.5"
         cy="62.5"
         r="11"
         d="m 73.5,62.5 a 11,11 0 0 1 -11,11 11,11 0 0 1 -11,-11 11,11 0 0 1 11,-11 11,11 0 0 1 11,11 z" /><path
         id="lpe_path-effect910"
         style="fill:#ffffff;fill-opacity:1;stroke-width:0.0712708"
         class="powerclip"
         d="m -1.25,-1.25 h 127.5 v 127.5 H -1.25 Z M 73.5,62.5 a 11,11 0 0 0 -11,-11 11,11 0 0 0 -11,11 11,11 0 0 0 11,11 11,11 0 0 0 11,-11 z" /></clipPath><inkscape:path-effect
       effect="powerclip"
       id="path-effect910"
       is_visible="true"
       lpeversion="1"
       inverse="true"
       flatten="false"
       hide_clip="false"
       message="Füllregel Gerade-Ungerade im &lt;b&gt;Füllung und Kontur&lt;/b&gt;-Dialog verwenden, wenn das Anwenden des Ausschnitts mit nachfolgendem Umwandeln in Pfade kein Ergebnis bringt" /><clipPath
       clipPathUnits="userSpaceOnUse"
       id="clipPath2076-3"><path
         id="lpe_path-effect2080-6"
         style="fill:#ffffff;fill-opacity:1;stroke-width:0.0712708"
         class="powerclip"
         d="m 57.5,57.5 h 64.27792 v 64.27792 H 57.5 Z m 16,5 a 11,11 0 0 0 -11,-11 11,11 0 0 0 -11,11 11,11 0 0 0 11,11 11,11 0 0 0 11,-11 z" /></clipPath><clipPath
       clipPathUnits="userSpaceOnUse"
       id="clipath_lpe_path-effect2142-7"><path
         id="lpe_path-effect2142-5"
         style="fill:#ffffff;fill-opacity:1;stroke-width:0.0712708"
         class="powerclip"
         d="m 57.5,57.5 h 64.27792 v 64.27792 H 57.5 Z m 16,5 a 11,11 0 0 0 -11,-11 11,11 0 0 0 -11,11 11,11 0 0 0 11,11 11,11 0 0 0 11,-11 z" /></clipPath><clipPath
       clipPathUnits="userSpaceOnUse"
       id="clipath_lpe_path-effect2180-3"><path
         id="lpe_path-effect2180-5"
         style="fill:#ffffff;fill-opacity:1;stroke-width:0.0712708"
         class="powerclip"
         d="M 41,41 H 84 V 84 H 41 Z m 32.5,21.5 a 11,11 0 0 0 -11,-11 11,11 0 0 0 -11,11 11,11 0 0 0 11,11 11,11 0 0 0 11,-11 z" /></clipPath><clipPath
       clipPathUnits="userSpaceOnUse"
       id="clipPath2188-6"><path
         id="lpe_path-effect2192-2"
         style="fill:#bebebe;fill-opacity:0.602295;stroke-width:0.106906"
         class="powerclip"
         d="m 35.5,35.5 h 54 v 54 h -54 z M 79,62.5 A 16.5,16.5 0 0 0 62.5,46 16.5,16.5 0 0 0 46,62.5 16.5,16.5 0 0 0 62.5,79 16.5,16.5 0 0 0 79,62.5 Z" /></clipPath></defs><sodipodi:namedview
     pagecolor="#ffffff"
     bordercolor="#666666"
     borderopacity="1"
     objecttolerance="10"
     gridtolerance="10"
     guidetolerance="10"
     inkscape:pageopacity="0"
     inkscape:pageshadow="2"
     inkscape:window-width="1848"
     inkscape:window-height="1016"
     id="namedview8141"
     showgrid="false"
     fit-margin-top="2"
     fit-margin-left="2"
     fit-margin-right="2"
     fit-margin-bottom="2"
     inkscape:zoom="0.68070815"
     inkscape:cx="681.464"
     inkscape:cy="375.54044"
     inkscape:window-x="0"
     inkscape:window-y="0"
     inkscape:window-maximized="1"
     inkscape:current-layer="g8035"
     inkscape:document-rotation="0" /><g
     id="g8033"
     transform="translate(-2.354,1.177)" /><g
     id="g8035"
     transform="translate(-2.354,1.177)"><g
       id="g945"
       transform="matrix(3.8247012,0,0,3.8247012,19.310175,15.779175)"><g
         id="g934"><path
           style="fill:#babad2;fill-opacity:1;stroke-width:0.406568"
           id="path1223"
           clip-path="url(#clipPath914)"
           inkscape:path-effect="#path-effect918"
           sodipodi:type="arc"
           sodipodi:cx="62.5"
           sodipodi:cy="62.5"
           sodipodi:rx="62.75"
           sodipodi:ry="62.75"
           d="M 125.25,62.5 A 62.75,62.75 0 0 1 62.5,125.25 62.75,62.75 0 0 1 -0.25,62.5 62.75,62.75 0 0 1 62.5,-0.25 62.75,62.75 0 0 1 125.25,62.5 Z" /><path
           style="fill:#771b85;fill-opacity:1;stroke-width:0.380651"
           id="path1223-6-9"
           clip-path="url(#clipPath906)"
           inkscape:path-effect="#path-effect910"
           sodipodi:type="arc"
           sodipodi:cx="62.5"
           sodipodi:cy="62.5"
           sodipodi:rx="58.75"
           sodipodi:ry="58.75"
           d="M 121.25,62.5 A 58.75,58.75 0 0 1 62.5,121.25 58.75,58.75 0 0 1 3.75,62.5 58.75,58.75 0 0 1 62.5,3.75 58.75,58.75 0 0 1 121.25,62.5 Z" /></g><g
         id="g924"><path
           id="path1223-6-7-1"
           clip-path="url(#clipPath2076-3)"
           d="M 116.77792,84.982652 A 58.75,58.75 0 0 1 84.982654,116.77792 L 62.5,62.5 Z"
           style="fill:#b66bc2;fill-opacity:1;stroke-width:0.380651" /><path
           id="path1223-6-7-2-2"
           transform="rotate(180,62.5,62.5)"
           clip-path="url(#clipath_lpe_path-effect2142-7)"
           d="M 116.77792,84.982652 A 58.75,58.75 0 0 1 84.982654,116.77792 L 62.5,62.5 Z"
           style="fill:#b66bc2;fill-opacity:1;stroke-width:0.380651" /></g><g
         id="g941"><path
           id="path1223-2-3-7"
           clip-path="url(#clipath_lpe_path-effect2180-3)"
           d="M 79,62.5 A 16.5,16.5 0 0 1 62.5,79 16.5,16.5 0 0 1 46,62.5 16.5,16.5 0 0 1 62.5,46 16.5,16.5 0 0 1 79,62.5 Z"
           style="fill:#bebebe;fill-opacity:0.602295;stroke-width:0.106906" /><path
           id="path1223-2-1-8-0"
           clip-path="url(#clipPath2188-6)"
           d="m 84.5,62.5 a 22,22 0 0 1 -22,22 22,22 0 0 1 -22,-22 22,22 0 0 1 22,-22 22,22 0 0 1 22,22 z"
           style="fill:#ffffff;fill-opacity:1;stroke-width:0.142542" /></g></g><g
       id="g860"
       transform="translate(-15.26099,5.0000023)"><rect
         style="fill:#f2f2f2;fill-opacity:0.7;stroke-width:3.96535"
         id="rect872"
         width="331.55719"
         height="247.5"
         x="149.61499"
         y="242.323" /><path
         inkscape:connector-curvature="0"
         style="display:inline;fill:#eb743b;fill-opacity:1;stroke:none;stroke-width:4.55555;enable-background:new"
         id="path7098"
         d="M 171.89334,263.57301 V 468.573 h 31.88895 v -205 z m 54.66677,0 V 468.573 h 27.33338 v -205 z m 36.44449,0 V 468.573 h 18.22229 v -205 z m 36.44454,0 V 468.573 h 18.22226 v -205 z m 41.00007,0 V 468.573 h 31.88895 v -205 z m 54.66676,0 V 468.573 h 13.6667 v -205 z m 36.44452,0 V 468.573 h 27.33337 v -205 z" /></g></g></svg>
