<?xml version="1.0" encoding="UTF-8" standalone="no"?>
<svg
   version="1.1"
   id="Layer_1"
   x="0px"
   y="0px"
   width="108"
   height="108"
   viewBox="0 0 108 108"
   enable-background="new 0 0 375 150"
   xml:space="preserve"
   sodipodi:docname="icon-adaptive-background.svg"
   inkscape:version="1.1.1 (3bf5ae0d25, 2021-09-20)"
   xmlns:inkscape="http://www.inkscape.org/namespaces/inkscape"
   xmlns:sodipodi="http://sodipodi.sourceforge.net/DTD/sodipodi-0.dtd"
   xmlns="http://www.w3.org/2000/svg"
   xmlns:svg="http://www.w3.org/2000/svg"
   xmlns:rdf="http://www.w3.org/1999/02/22-rdf-syntax-ns#"
   xmlns:cc="http://creativecommons.org/ns#"
   xmlns:dc="http://purl.org/dc/elements/1.1/"><sodipodi:namedview
     id="namedview629"
     pagecolor="#ffffff"
     bordercolor="#666666"
     borderopacity="1.0"
     inkscape:pageshadow="2"
     inkscape:pageopacity="0.0"
     inkscape:pagecheckerboard="0"
     showgrid="false"
     inkscape:zoom="4"
     inkscape:cx="14.875"
     inkscape:cy="32.625"
     inkscape:window-width="1852"
     inkscape:window-height="1016"
     inkscape:window-x="68"
     inkscape:window-y="27"
     inkscape:window-maximized="1"
     inkscape:current-layer="Layer_1" /><title
     id="title1221">Picard Barcode Scanner Icon</title><defs
     id="defs8143"><clipPath
       clipPathUnits="userSpaceOnUse"
       id="clipPath914"><path
         style="display:none;fill:#ffffff;fill-opacity:1;stroke-width:0.0712708"
         id="circle916"
         d="M-11,0a11,11 0 1,0 22,0a11,11 0 1,0 -22,0" /><path
         id="lpe_path-effect918"
         style="fill:#ffffff;fill-opacity:1;stroke-width:0.0712708"
         class="powerclip"
         d="m -5.25,-5.25 h 135.5 v 135.5 H -5.25 Z M 73.5,62.5 a 11,11 0 0 0 -11,-11 11,11 0 0 0 -11,11 11,11 0 0 0 11,11 11,11 0 0 0 11,-11 z" /></clipPath><clipPath
       clipPathUnits="userSpaceOnUse"
       id="clipPath906"><path
         style="display:none;fill:#ffffff;fill-opacity:1;stroke-width:0.0712708"
         id="circle908"
         d="M-11,0a11,11 0 1,0 22,0a11,11 0 1,0 -22,0" /><path
         id="lpe_path-effect910"
         style="fill:#ffffff;fill-opacity:1;stroke-width:0.0712708"
         class="powerclip"
         d="m -1.25,-1.25 h 127.5 v 127.5 H -1.25 Z M 73.5,62.5 a 11,11 0 0 0 -11,-11 11,11 0 0 0 -11,11 11,11 0 0 0 11,11 11,11 0 0 0 11,-11 z" /></clipPath><clipPath
       clipPathUnits="userSpaceOnUse"
       id="clipPath2076-3"><path
         id="lpe_path-effect2080-6"
         style="fill:#ffffff;fill-opacity:1;stroke-width:0.0712708"
         class="powerclip"
         d="m 57.5,57.5 h 64.27792 v 64.27792 H 57.5 Z m 16,5 a 11,11 0 0 0 -11,-11 11,11 0 0 0 -11,11 11,11 0 0 0 11,11 11,11 0 0 0 11,-11 z" /></clipPath><clipPath
       clipPathUnits="userSpaceOnUse"
       id="clipath_lpe_path-effect2142-7"><path
         id="lpe_path-effect2142-5"
         style="fill:#ffffff;fill-opacity:1;stroke-width:0.0712708"
         class="powerclip"
         d="m 57.5,57.5 h 64.27792 v 64.27792 H 57.5 Z m 16,5 a 11,11 0 0 0 -11,-11 11,11 0 0 0 -11,11 11,11 0 0 0 11,11 11,11 0 0 0 11,-11 z" /></clipPath><clipPath
       clipPathUnits="userSpaceOnUse"
       id="clipath_lpe_path-effect2180-3"><path
         id="lpe_path-effect2180-5"
         style="fill:#ffffff;fill-opacity:1;stroke-width:0.0712708"
         class="powerclip"
         d="M 41,41 H 84 V 84 H 41 Z m 32.5,21.5 a 11,11 0 0 0 -11,-11 11,11 0 0 0 -11,11 11,11 0 0 0 11,11 11,11 0 0 0 11,-11 z" /></clipPath><clipPath
       clipPathUnits="userSpaceOnUse"
       id="clipPath2188-6"><path
         id="lpe_path-effect2192-2"
         style="fill:#bebebe;fill-opacity:0.602295;stroke-width:0.106906"
         class="powerclip"
         d="m 35.5,35.5 h 54 v 54 h -54 z M 79,62.5 A 16.5,16.5 0 0 0 62.5,46 16.5,16.5 0 0 0 46,62.5 16.5,16.5 0 0 0 62.5,79 16.5,16.5 0 0 0 79,62.5 Z" /></clipPath></defs><path
     id="path2588"
     style="fill:#666666;stroke:none;stroke-width:1.244"
     d="M 108,108 H 0 v 0 L 108,0 Z"
     sodipodi:nodetypes="ccccc" /><path
     id="rect1207"
     style="fill:#595959;stroke-width:1.244;stroke:none;fill-opacity:1"
     d="M 0,0 H 108 V 0 L 0,108 Z"
     sodipodi:nodetypes="ccccc" /><metadata
     id="metadata215"><rdf:RDF><cc:Work
         rdf:about=""><dc:title>Picard Barcode Scanner Icon</dc:title><cc:license
           rdf:resource="http://creativecommons.org/licenses/by-sa/4.0/" /><dc:rights><cc:Agent><dc:title>Dieses Werk ist lizenziert unter einer Creative Commons Namensnennung - Weitergabe unter gleichen Bedingungen 4.0 International Lizenz.</dc:title></cc:Agent></dc:rights><dc:creator><cc:Agent><dc:title>Philipp Wolfer</dc:title></cc:Agent></dc:creator></cc:Work><cc:License
         rdf:about="http://creativecommons.org/licenses/by-sa/4.0/"><cc:permits
           rdf:resource="http://creativecommons.org/ns#Reproduction" /><cc:permits
           rdf:resource="http://creativecommons.org/ns#Distribution" /><cc:requires
           rdf:resource="http://creativecommons.org/ns#Notice" /><cc:requires
           rdf:resource="http://creativecommons.org/ns#Attribution" /><cc:permits
           rdf:resource="http://creativecommons.org/ns#DerivativeWorks" /><cc:requires
           rdf:resource="http://creativecommons.org/ns#ShareAlike" /></cc:License></rdf:RDF></metadata></svg>
